<svg xmlns="http://www.w3.org/2000/svg" xmlns:xlink="http://www.w3.org/1999/xlink" width="500" zoomAndPan="magnify" viewBox="0 0 375 374.999991" height="500" preserveAspectRatio="xMidYMid meet" version="1.0"><defs><g/><clipPath id="8a60186991"><path d="M 53.238281 81.878906 L 321.738281 81.878906 L 321.738281 249.128906 L 53.238281 249.128906 Z M 53.238281 81.878906 " clip-rule="nonzero"/></clipPath></defs><g clip-path="url(#8a60186991)"><path fill="#003d6e" d="M 124.804688 249.277344 C 115.152344 249.277344 105.789062 247.386719 96.96875 243.652344 C 88.453125 240.054688 80.808594 234.898438 74.242188 228.335938 C 67.679688 221.769531 62.527344 214.121094 58.925781 205.609375 C 55.195312 196.789062 53.300781 187.421875 53.300781 177.777344 C 53.300781 168.125 55.195312 158.761719 58.925781 149.941406 C 62.527344 141.425781 67.679688 133.78125 74.242188 127.214844 C 80.808594 120.652344 88.453125 115.496094 96.96875 111.894531 C 105.789062 108.164062 115.152344 106.273438 124.804688 106.273438 C 133.316406 106.273438 141.648438 107.753906 149.566406 110.679688 C 157.21875 113.503906 164.289062 117.597656 170.578125 122.84375 C 183.222656 133.390625 191.898438 148.054688 195.003906 164.136719 C 195.523438 166.824219 196.105469 169.121094 196.78125 171.148438 C 204.4375 194.195312 225.90625 209.679688 250.210938 209.679688 C 281.25 209.679688 306.5 184.429688 306.5 153.390625 C 306.5 122.351562 281.25 97.101562 250.210938 97.101562 C 234.605469 97.101562 220.097656 103.339844 209.355469 114.667969 C 206.464844 117.71875 201.652344 117.847656 198.601562 114.953125 C 195.554688 112.066406 195.425781 107.253906 198.316406 104.203125 C 204.925781 97.230469 212.722656 91.742188 221.484375 87.894531 C 230.5625 83.910156 240.226562 81.886719 250.210938 81.886719 C 259.863281 81.886719 269.226562 83.777344 278.046875 87.511719 C 286.5625 91.109375 294.207031 96.265625 300.773438 102.828125 C 307.335938 109.394531 312.488281 117.042969 316.09375 125.558594 C 319.824219 134.375 321.714844 143.742188 321.714844 153.390625 C 321.714844 163.039062 319.824219 172.40625 316.09375 181.226562 C 312.488281 189.738281 307.335938 197.386719 300.773438 203.949219 C 294.207031 210.511719 286.5625 215.667969 278.046875 219.269531 C 269.226562 223 259.863281 224.890625 250.210938 224.890625 C 234.890625 224.890625 220.28125 220.113281 207.960938 211.078125 C 202.035156 206.734375 196.832031 201.523438 192.492188 195.59375 C 188.09375 189.59375 184.679688 182.980469 182.34375 175.945312 C 181.460938 173.285156 180.714844 170.363281 180.070312 167.023438 C 174.96875 140.636719 151.726562 121.484375 124.804688 121.484375 C 93.765625 121.484375 68.511719 146.734375 68.511719 177.777344 C 68.511719 208.8125 93.765625 234.066406 124.804688 234.066406 C 140.410156 234.066406 154.917969 227.824219 165.660156 216.496094 C 168.550781 213.449219 173.363281 213.320312 176.414062 216.210938 C 179.460938 219.097656 179.589844 223.914062 176.699219 226.960938 C 170.089844 233.933594 162.292969 239.421875 153.53125 243.269531 C 144.457031 247.253906 134.789062 249.277344 124.804688 249.277344 " fill-opacity="1" fill-rule="nonzero"/></g><path fill="#3d8689" d="M 156.839844 211.035156 C 165.640625 202.238281 170.488281 190.535156 170.488281 178.089844 C 170.488281 168.695312 167.703125 159.636719 162.433594 151.894531 C 157.292969 144.347656 150.132812 138.519531 141.722656 135.03125 C 137.84375 133.421875 133.394531 135.265625 131.785156 139.144531 C 130.175781 143.023438 132.019531 147.472656 135.898438 149.085938 C 147.667969 153.960938 155.273438 165.347656 155.273438 178.089844 C 155.273438 195.394531 141.199219 209.472656 123.894531 209.472656 C 115.367188 209.472656 107.386719 206.109375 101.429688 200.007812 C 98.496094 197 93.683594 196.941406 90.675781 199.875 C 87.667969 202.808594 87.609375 207.625 90.542969 210.628906 C 94.835938 215.027344 99.863281 218.484375 105.488281 220.90625 C 111.3125 223.414062 117.507812 224.683594 123.894531 224.683594 C 136.339844 224.683594 148.039062 219.835938 156.839844 211.035156 Z M 244.996094 201.601562 C 244.679688 201.601562 244.355469 201.578125 244.03125 201.539062 C 220.839844 198.59375 203.347656 178.722656 203.347656 155.316406 C 203.347656 142.871094 208.195312 131.167969 216.996094 122.367188 C 225.796875 113.566406 237.496094 108.71875 249.945312 108.71875 C 264.289062 108.71875 277.617188 115.183594 286.519531 126.449219 C 289.125 129.742188 288.566406 134.53125 285.265625 137.128906 C 281.972656 139.734375 277.1875 139.175781 274.582031 135.878906 C 268.585938 128.285156 259.605469 123.933594 249.945312 123.933594 C 232.640625 123.933594 218.5625 138.011719 218.5625 155.316406 C 218.5625 171.085938 230.335938 184.46875 245.945312 186.449219 C 250.113281 186.976562 253.0625 190.78125 252.53125 194.949219 C 252.046875 198.789062 248.769531 201.601562 244.996094 201.601562 " fill-opacity="1" fill-rule="nonzero"/><g fill="#003d6e" fill-opacity="1"><g transform="translate(111.609463, 302.689199)"><g><path d="M 14.203125 -5.578125 L 14.203125 0 L 1.171875 0 L 1.171875 -20.953125 L 6.75 -20.953125 L 6.75 -5.578125 Z M 14.203125 -5.578125 "/></g></g></g><g fill="#003d6e" fill-opacity="1"><g transform="translate(126.814117, 302.689199)"><g><path d="M 6.75 -15.875 L 6.75 -12.953125 L 14.203125 -12.953125 L 14.203125 -8 L 6.75 -8 L 6.75 -5.0625 L 14.203125 -5.0625 L 14.203125 0 L 1.171875 0 L 1.171875 -20.953125 L 14.203125 -20.953125 L 14.203125 -15.875 Z M 6.75 -15.875 "/></g></g></g><g fill="#003d6e" fill-opacity="1"><g transform="translate(142.186312, 302.689199)"><g><path d="M 12.1875 -3.015625 L 6.53125 -3.015625 L 5.703125 0 L 0.25 0 L 6.578125 -20.953125 L 12.234375 -20.953125 L 18.484375 0 L 13.078125 0 Z M 10.765625 -7.921875 L 9.390625 -13.953125 L 8.046875 -7.921875 Z M 10.765625 -7.921875 "/></g></g></g><g fill="#003d6e" fill-opacity="1"><g transform="translate(160.909394, 302.689199)"><g><path d="M 14 -9.046875 C 15.332031 -7.796875 16 -5.925781 16 -3.4375 L 16 0 L 10.890625 0 L 10.890625 -4.109375 C 10.890625 -5.953125 10.132812 -7.082031 8.625 -7.5 L 6.75 -7.5 L 6.75 0 L 1.171875 0 L 1.171875 -20.953125 L 9.71875 -20.953125 C 11.757812 -20.953125 13.332031 -20.367188 14.4375 -19.203125 C 15.539062 -18.046875 16.09375 -16.394531 16.09375 -14.25 C 16.09375 -11.875 15.394531 -10.140625 14 -9.046875 Z M 9.265625 -12.40625 C 10.515625 -12.40625 11.140625 -12.976562 11.140625 -14.125 C 11.140625 -15.289062 10.515625 -15.875 9.265625 -15.875 L 6.75 -15.875 L 6.75 -12.40625 Z M 9.265625 -12.40625 "/></g></g></g><g fill="#003d6e" fill-opacity="1"><g transform="translate(177.998924, 302.689199)"><g><path d="M 1.171875 0 L 1.171875 -20.953125 L 5.828125 -20.953125 L 10.515625 -11.1875 L 10.515625 -20.953125 L 16.09375 -20.953125 L 16.09375 0 L 11.4375 0 L 6.75 -9.796875 L 6.75 0 Z M 1.171875 0 "/></g></g></g><g fill="#003d6e" fill-opacity="1"><g transform="translate(195.29788, 302.689199)"><g><path d="M 14.203125 -5.578125 L 14.203125 0 L 1.171875 0 L 1.171875 -20.953125 L 6.75 -20.953125 L 6.75 -5.578125 Z M 14.203125 -5.578125 "/></g></g></g><g fill="#003d6e" fill-opacity="1"><g transform="translate(210.502534, 302.689199)"><g><path d="M 8.96875 0.296875 C 6.425781 0.296875 4.457031 -0.640625 3.0625 -2.515625 C 1.664062 -4.390625 0.96875 -7.039062 0.96875 -10.46875 C 0.96875 -13.90625 1.664062 -16.554688 3.0625 -18.421875 C 4.457031 -20.296875 6.425781 -21.234375 8.96875 -21.234375 C 11.539062 -21.234375 13.523438 -20.296875 14.921875 -18.421875 C 16.316406 -16.554688 17.015625 -13.90625 17.015625 -10.46875 C 17.015625 -7.039062 16.316406 -4.390625 14.921875 -2.515625 C 13.523438 -0.640625 11.539062 0.296875 8.96875 0.296875 Z M 9.015625 -5.28125 C 9.816406 -5.28125 10.429688 -5.722656 10.859375 -6.609375 C 11.296875 -7.503906 11.53125 -8.789062 11.5625 -10.46875 C 11.53125 -12.144531 11.296875 -13.429688 10.859375 -14.328125 C 10.429688 -15.222656 9.816406 -15.671875 9.015625 -15.671875 C 8.171875 -15.671875 7.523438 -15.222656 7.078125 -14.328125 C 6.628906 -13.429688 6.40625 -12.144531 6.40625 -10.46875 C 6.40625 -8.789062 6.628906 -7.503906 7.078125 -6.609375 C 7.523438 -5.722656 8.171875 -5.28125 9.015625 -5.28125 Z M 9.015625 -5.28125 "/></g></g></g><g fill="#003d6e" fill-opacity="1"><g transform="translate(228.471668, 302.689199)"><g><path d="M 8.96875 0.296875 C 6.425781 0.296875 4.457031 -0.640625 3.0625 -2.515625 C 1.664062 -4.390625 0.96875 -7.039062 0.96875 -10.46875 C 0.96875 -13.90625 1.664062 -16.554688 3.0625 -18.421875 C 4.457031 -20.296875 6.425781 -21.234375 8.96875 -21.234375 C 11.539062 -21.234375 13.523438 -20.296875 14.921875 -18.421875 C 16.316406 -16.554688 17.015625 -13.90625 17.015625 -10.46875 C 17.015625 -7.039062 16.316406 -4.390625 14.921875 -2.515625 C 13.523438 -0.640625 11.539062 0.296875 8.96875 0.296875 Z M 9.015625 -5.28125 C 9.816406 -5.28125 10.429688 -5.722656 10.859375 -6.609375 C 11.296875 -7.503906 11.53125 -8.789062 11.5625 -10.46875 C 11.53125 -12.144531 11.296875 -13.429688 10.859375 -14.328125 C 10.429688 -15.222656 9.816406 -15.671875 9.015625 -15.671875 C 8.171875 -15.671875 7.523438 -15.222656 7.078125 -14.328125 C 6.628906 -13.429688 6.40625 -12.144531 6.40625 -10.46875 C 6.40625 -8.789062 6.628906 -7.503906 7.078125 -6.609375 C 7.523438 -5.722656 8.171875 -5.28125 9.015625 -5.28125 Z M 9.015625 -5.28125 "/></g></g></g><g fill="#003d6e" fill-opacity="1"><g transform="translate(246.440802, 302.689199)"><g><path d="M 9.71875 -20.953125 C 11.757812 -20.953125 13.332031 -20.359375 14.4375 -19.171875 C 15.539062 -17.984375 16.09375 -16.300781 16.09375 -14.125 C 16.09375 -12.132812 15.59375 -10.566406 14.59375 -9.421875 C 13.601562 -8.273438 12.1875 -7.609375 10.34375 -7.421875 L 6.75 -7.421875 L 6.75 0 L 1.171875 0 L 1.171875 -20.953125 Z M 9.265625 -12.40625 C 10.515625 -12.40625 11.140625 -12.976562 11.140625 -14.125 C 11.140625 -15.238281 10.515625 -15.820312 9.265625 -15.875 L 6.75 -15.875 L 6.75 -12.40625 Z M 9.265625 -12.40625 "/></g></g></g></svg>