<svg xmlns="http://www.w3.org/2000/svg" xmlns:xlink="http://www.w3.org/1999/xlink" width="500" zoomAndPan="magnify" viewBox="0 0 375 374.999991" height="500" preserveAspectRatio="xMidYMid meet" version="1.0"><defs><clipPath id="1f6d26178d"><path d="M 24.269531 85.75 L 350.519531 85.75 L 350.519531 289 L 24.269531 289 Z M 24.269531 85.75 " clip-rule="nonzero"/></clipPath></defs><g clip-path="url(#1f6d26178d)"><path fill="#003d6e" d="M 111.28125 289.269531 C 99.550781 289.269531 88.164062 286.96875 77.441406 282.433594 C 67.085938 278.054688 57.792969 271.789062 49.8125 263.808594 C 41.832031 255.828125 35.5625 246.527344 31.183594 236.175781 C 26.648438 225.453125 24.347656 214.070312 24.347656 202.339844 C 24.347656 190.605469 26.648438 179.21875 31.183594 168.496094 C 35.5625 158.144531 41.832031 148.847656 49.8125 140.871094 C 57.792969 132.890625 67.085938 126.621094 77.441406 122.242188 C 88.164062 117.707031 99.550781 115.40625 111.28125 115.40625 C 121.628906 115.40625 131.757812 117.210938 141.386719 120.765625 C 150.691406 124.199219 159.285156 129.175781 166.929688 135.550781 C 182.304688 148.375 192.851562 166.203125 196.628906 185.753906 C 197.261719 189.023438 197.96875 191.8125 198.789062 194.28125 C 208.097656 222.304688 234.199219 241.125 263.75 241.125 C 301.488281 241.125 332.183594 210.429688 332.183594 172.691406 C 332.183594 134.957031 301.488281 104.253906 263.75 104.253906 C 244.777344 104.253906 227.136719 111.839844 214.074219 125.613281 C 210.5625 129.320312 204.710938 129.476562 201.003906 125.960938 C 197.296875 122.449219 197.140625 116.597656 200.65625 112.890625 C 208.691406 104.414062 218.171875 97.742188 228.824219 93.0625 C 239.859375 88.21875 251.609375 85.757812 263.75 85.757812 C 275.484375 85.757812 286.867188 88.058594 297.589844 92.597656 C 307.941406 96.972656 317.238281 103.242188 325.21875 111.222656 C 333.199219 119.199219 339.464844 128.5 343.847656 138.851562 C 348.378906 149.574219 350.679688 160.960938 350.679688 172.691406 C 350.679688 184.425781 348.378906 195.808594 343.847656 206.53125 C 339.464844 216.882812 333.199219 226.179688 325.21875 234.160156 C 317.238281 242.140625 307.941406 248.40625 297.589844 252.785156 C 286.867188 257.320312 275.484375 259.621094 263.75 259.621094 C 245.121094 259.621094 227.359375 253.8125 212.382812 242.828125 C 205.179688 237.546875 198.851562 231.210938 193.574219 224.003906 C 188.226562 216.707031 184.078125 208.667969 181.234375 200.113281 C 180.160156 196.878906 179.257812 193.328125 178.472656 189.265625 C 172.273438 157.183594 144.015625 133.902344 111.28125 133.902344 C 73.542969 133.902344 42.84375 164.601562 42.84375 202.339844 C 42.84375 240.074219 73.542969 270.773438 111.28125 270.773438 C 130.253906 270.773438 147.894531 263.1875 160.953125 249.414062 C 164.464844 245.707031 170.320312 245.550781 174.027344 249.066406 C 177.734375 252.578125 177.886719 258.429688 174.375 262.136719 C 166.335938 270.613281 156.859375 277.285156 146.207031 281.964844 C 135.171875 286.8125 123.421875 289.269531 111.28125 289.269531 " fill-opacity="1" fill-rule="nonzero"/></g><path fill="#3d8689" d="M 150.230469 242.777344 C 160.929688 232.078125 166.824219 217.851562 166.824219 202.71875 C 166.824219 191.296875 163.4375 180.285156 157.03125 170.875 C 150.78125 161.699219 142.078125 154.609375 131.851562 150.371094 C 127.132812 148.414062 121.722656 150.65625 119.769531 155.371094 C 117.8125 160.089844 120.050781 165.496094 124.769531 167.457031 C 139.082031 173.386719 148.328125 187.230469 148.328125 202.71875 C 148.328125 223.757812 131.210938 240.875 110.175781 240.875 C 99.804688 240.875 90.109375 236.785156 82.867188 229.367188 C 79.296875 225.710938 73.445312 225.640625 69.789062 229.207031 C 66.132812 232.773438 66.0625 238.628906 69.628906 242.28125 C 74.847656 247.628906 80.960938 251.832031 87.796875 254.773438 C 94.878906 257.824219 102.410156 259.367188 110.175781 259.367188 C 125.304688 259.367188 139.53125 253.476562 150.230469 242.777344 Z M 257.410156 231.304688 C 257.023438 231.304688 256.628906 231.277344 256.234375 231.226562 C 228.039062 227.648438 206.773438 203.492188 206.773438 175.03125 C 206.773438 159.898438 212.667969 145.675781 223.367188 134.976562 C 234.070312 124.277344 248.292969 118.382812 263.425781 118.382812 C 280.863281 118.382812 297.070312 126.242188 307.894531 139.933594 C 311.058594 143.941406 310.378906 149.761719 306.371094 152.921875 C 302.363281 156.089844 296.546875 155.40625 293.378906 151.402344 C 286.089844 142.171875 275.171875 136.878906 263.425781 136.878906 C 242.386719 136.878906 225.269531 153.992188 225.269531 175.03125 C 225.269531 194.203125 239.582031 210.472656 258.5625 212.882812 C 263.628906 213.523438 267.214844 218.152344 266.570312 223.21875 C 265.980469 227.886719 261.996094 231.304688 257.410156 231.304688 " fill-opacity="1" fill-rule="nonzero"/></svg>